<?xml version="1.0" encoding="utf-8"?>
<!-- Generator: Adobe Illustrator 23.0.1, SVG Export Plug-In . SVG Version: 6.00 Build 0)  -->
<svg version="1.1" id="Layer_1" xmlns="http://www.w3.org/2000/svg" xmlns:xlink="http://www.w3.org/1999/xlink" x="0px" y="0px"
	 viewBox="0 0 480 320" style="enable-background:new 0 0 480 320;" xml:space="preserve">
<style type="text/css">
	.st0{fill:#F4F7FE;}
	.st1{fill-rule:evenodd;clip-rule:evenodd;fill:#F4F7FE;}
</style>
<path id="base" class="st0" d="M88.1,313c-53.7-28.4,7.6-89,7.6-154.4S95.8-4.9,161.2,4.4s45.3,89.9,212.3,129.3
	S141.8,341.4,88.1,313z"/>
<path class="st1" d="M465.7,112.9c33.1,0-5.7-64.4-5.7-97.5s-21-2.6-54.1-2.6S340-17.7,340,15.4S432.6,112.9,465.7,112.9z"/>
<g id="judge" transform="translate(0 0)">
	<path id="Path_344" d="M265.4,155v-29.6l-17.9-17.9h-60v94.8h54.3c10.3,12.1,28.4,13.6,40.5,3.3c12.1-10.3,13.6-28.4,3.3-40.5
		C280.6,159.1,273.3,155.5,265.4,155z M248.5,113.3l11.2,11.2h-11.2V113.3z M190.9,199v-88.1h54.2v16.9H262V155
		c-15.8,0.9-27.9,14.4-27.1,30.3c0.3,4.9,1.8,9.6,4.4,13.7H190.9z M263.7,209.1c-14,0-25.4-11.4-25.4-25.4c0-14,11.4-25.4,25.4-25.4
		c14,0,25.4,11.4,25.4,25.4c0,0,0,0,0,0C289.1,197.7,277.7,209.1,263.7,209.1L263.7,209.1z"/>
	<path id="Path_345" d="M273.9,165.1h-20.3c-2.8,0-5.1,2.3-5.1,5.1v6.8c0,2.8,2.3,5.1,5.1,5.1h5.1v15.2c0,2.8,2.3,5.1,5.1,5.1
		c2.8,0,5.1-2.3,5.1-5.1l0,0V182h5.1c2.8,0,5.1-2.3,5.1-5.1v-6.8C278.9,167.4,276.7,165.1,273.9,165.1z M268.8,168.5v10.2h-10.2
		v-10.2H268.8z M251.9,176.9v-6.8c0-0.9,0.8-1.7,1.7-1.7h1.7v10.2h-1.7C252.6,178.6,251.9,177.9,251.9,176.9L251.9,176.9z
		 M265.4,197.3c0,0.9-0.8,1.7-1.7,1.7s-1.7-0.8-1.7-1.7c0,0,0,0,0,0V182h3.4V197.3z M275.6,176.9c0,0.9-0.8,1.7-1.7,1.7h-1.7v-10.2
		h1.7c0.9,0,1.7,0.8,1.7,1.7V176.9z"/>
	<path id="Path_346" d="M204.4,171.9c1.9,0,3.4,1.5,3.4,3.4h3.4c0-3.1-2.1-5.8-5.1-6.5v-3.6h-3.4v3.6c-3.6,0.9-5.8,4.6-4.9,8.2
		c0.8,3,3.5,5.1,6.6,5.1c1.9,0,3.4,1.5,3.4,3.4c0,1.9-1.5,3.4-3.4,3.4s-3.4-1.5-3.4-3.4l0,0h-3.4c0,3.1,2.1,5.8,5.1,6.5v3.6h3.4
		v-3.6c3.6-0.9,5.8-4.6,4.9-8.2c-0.8-3-3.5-5.1-6.6-5.1c-1.9,0-3.4-1.4-3.5-3.3c0-1.9,1.4-3.4,3.3-3.5
		C204.3,171.9,204.4,171.9,204.4,171.9L204.4,171.9z"/>
	<path id="Path_347" d="M234.9,125.6l-7.6-11.3h-25.5l-7.6,11.3v22.5h40.6V125.6z M203.6,117.7h21.9l4.5,6.8h-30.9L203.6,117.7z
		 M218,144.8h-6.8v-10.2h6.8L218,144.8z M221.4,144.8v-13.5h-13.6v13.5h-10.2v-16.9h33.9v16.9H221.4z"/>
	<path id="Path_348" d="M238.3,131.2h20.3v3.4h-20.3V131.2z"/>
	<path id="Path_349" d="M238.3,138h20.3v3.4h-20.3V138z"/>
	<path id="Path_350" d="M238.3,144.8h20.3v3.4h-20.3V144.8z"/>
	<path id="Path_351" d="M194.3,151.5h54.2v3.4h-54.2V151.5z"/>
	<path id="Path_352" d="M194.3,158.3h44v3.4h-44V158.3z"/>
</g>
</svg>
