<?xml version="1.0" encoding="utf-8"?>
<!-- Generator: Adobe Illustrator 23.0.1, SVG Export Plug-In . SVG Version: 6.00 Build 0)  -->
<svg version="1.1" id="Layer_1" xmlns="http://www.w3.org/2000/svg" xmlns:xlink="http://www.w3.org/1999/xlink" x="0px" y="0px"
	 viewBox="0 0 480 320" style="enable-background:new 0 0 480 320;" xml:space="preserve">
<style type="text/css">
	.st0{fill:#F4F7FE;}
</style>
<path id="base" class="st0" d="M74.5,28.9c30.8-58.2,96.5,8.2,167.4,8.2s177.2,0.1,167.2,71c-10,70.9-57.7,106.8-138.4,191.7
	S43.7,87.1,74.5,28.9z"/>
<g>
	<g id="Group_506" transform="translate(35.015 9.224)">
		<g id="Group_505">
			<path id="Path_327" d="M239.3,131.1l-19-13.8c-0.7-0.5-1.7-0.4-2.2,0.3c-0.5,0.7-0.4,1.7,0.3,2.2c0,0,0,0,0,0l19,13.8
				c0.7,0.5,1.7,0.4,2.2-0.3C240.2,132.7,240,131.7,239.3,131.1C239.3,131.1,239.3,131.1,239.3,131.1L239.3,131.1z"/>
		</g>
	</g>
	<g id="Group_508" transform="translate(6.623 12.097)">
		<g id="Group_507">
			<path id="Path_328" d="M220.8,120.7c-0.1-0.9-0.9-1.4-1.8-1.3c0,0,0,0,0,0l-23.2,3.7c-0.9,0.1-1.5,0.9-1.4,1.8s0.9,1.5,1.8,1.4
				c0,0,0.1,0,0.1,0l23.2-3.7C220.3,122.4,220.9,121.6,220.8,120.7z"/>
		</g>
	</g>
	<g id="Group_510" transform="translate(0 0)">
		<g id="Group_509">
			<path id="Path_329" d="M290.3,135.4L255,109.7c-0.7-0.5-1.7-0.4-2.2,0.3l-15.4,21.2l-2.1-13.4c-0.1-0.9-0.9-1.4-1.8-1.3
				c0,0,0,0,0,0l-43.1,6.8c-0.9,0.1-1.4,0.9-1.3,1.8c0,0,0,0,0,0l8.4,53.1c0.1,0.9,0.9,1.4,1.8,1.3c0,0,0,0,0,0l9.9-1.6V195
				c0,0.9,0.7,1.6,1.6,1.6l0,0h43.7c0.9,0,1.6-0.7,1.6-1.6l0,0v-4.4c1.1-0.6,2.1-1.3,3-2.1l3.9,3.9l-1.3,1.3c-0.6,0.6-0.6,1.6,0,2.2
				l14.3,14.3c0.6,0.6,1.6,0.6,2.2,0l4.8-4.8c0.6-0.6,0.6-1.6,0-2.2l-14.3-14.3c-0.6-0.6-1.6-0.6-2.2,0l-1.3,1.3l-3.9-3.9
				c3.1-3.6,4.8-8.2,4.8-13c0-0.5,0-1-0.1-1.6l24.7-34C291.2,136.9,291,135.9,290.3,135.4z M267.6,192.2l12,12l-2.5,2.5l-12-12
				L267.6,192.2z M209.2,141.3v6.5l-4.7,0.7c-0.9,0.1-1.5,0.9-1.4,1.8c0.1,0.9,0.9,1.5,1.8,1.4c0,0,0.1,0,0.1,0l4.2-0.7v10.4
				l-2.5,0.4c-0.9,0.1-1.5,0.9-1.4,1.8c0.1,0.9,0.9,1.5,1.8,1.4c0,0,0.1,0,0.1,0l2.1-0.3v10.4l-8.8,1.4l-7.9-50l40-6.4l2.4,14.9
				l-3.5,4.8h-20.6C209.9,139.7,209.2,140.4,209.2,141.3z M252.8,193.4h-40.5v-50.6h40.5v11.5c-2.2-0.8-4.5-1.2-6.8-1.2
				c-0.4,0-0.9,0-1.3,0c-0.1,0-0.2,0-0.4,0h-23.5c-0.9,0-1.6,0.7-1.6,1.6c0,0.9,0.7,1.6,1.6,1.6c0,0,0,0,0,0h14.4
				c-1.7,1.1-3.3,2.5-4.6,4c-1.6,1.9-2.8,4-3.6,6.3h-6.3c-0.9,0-1.6,0.7-1.6,1.6c0,0.9,0.7,1.6,1.6,1.6c0,0,0,0,0,0h5.4
				c-0.2,1.1-0.3,2.3-0.3,3.5c0,2.3,0.4,4.6,1.2,6.8h-6.3c-0.9,0-1.6,0.7-1.6,1.6c0,0.9,0.7,1.6,1.6,1.6h7.8
				c4.8,8.4,15.1,12.2,24.2,8.9L252.8,193.4L252.8,193.4z M258,185.1L258,185.1c-1.3,1.3-2.7,2.3-4.3,3.1
				c-8.3,4.2-18.5,0.9-22.7-7.4l0,0c-1.2-2.4-1.8-5-1.8-7.7c0-9.3,7.6-16.9,16.9-16.9c8.6,0,15.9,6.5,16.8,15.1l0,0
				c0.1,0.6,0.1,1.2,0.1,1.8C262.9,177.7,261.1,182,258,185.1z M265.2,167.3c-1.5-4.9-4.8-9-9.2-11.6v-8.2l8.6,6.2
				c0.7,0.5,1.7,0.4,2.2-0.3c0.5-0.7,0.4-1.7-0.3-2.2c0,0,0,0,0,0l-10.4-7.6v-2.4c0-0.9-0.7-1.6-1.6-1.6l0,0h-3.9l-3.1-2.3
				c-0.7-0.5-1.7-0.4-2.2,0.3c-0.4,0.6-0.4,1.4,0.1,1.9h-10l2.5-3.4l0,0l16.7-23l32.8,23.8L265.2,167.3z"/>
		</g>
	</g>
	<g id="Group_512" transform="translate(23.985 27.675)">
		<g id="Group_511">
			<path id="Path_330" d="M222,132.2c-7.4,0-13.3,6-13.3,13.3s6,13.3,13.3,13.3c7.4,0,13.3-6,13.3-13.3
				C235.4,138.1,229.4,132.2,222,132.2z M222,155.7c-5.6,0-10.2-4.6-10.2-10.2c0-5.6,4.6-10.2,10.2-10.2c5.6,0,10.2,4.6,10.2,10.2
				l0,0C232.2,151.1,227.6,155.7,222,155.7z"/>
		</g>
	</g>
	<g id="Group_514" transform="translate(29.981 34.594)">
		<g id="Group_513">
			<path id="Path_331" d="M220.5,138.3c-0.6-0.6-1.6-0.6-2.2,0l-4.2,4.2c-0.6,0.6-0.6,1.6,0,2.2c0.6,0.6,1.6,0.6,2.2,0l4.2-4.2
				C221.1,139.9,221.1,138.9,220.5,138.3z"/>
		</g>
	</g>
	<g id="Group_516" transform="translate(28.828 30.904)">
		<g id="Group_515">
			<path id="Path_332" d="M220,135.3c-0.6-0.6-1.6-0.6-2.2,0l-4.6,4.6c-0.6,0.6-0.6,1.6,0,2.2c0.6,0.6,1.6,0.6,2.2,0l4.6-4.6
				C220.6,136.9,220.6,135.9,220,135.3z"/>
		</g>
	</g>
</g>
</svg>
