<?xml version="1.0" encoding="utf-8"?>
<!-- Generator: Adobe Illustrator 23.0.1, SVG Export Plug-In . SVG Version: 6.00 Build 0)  -->
<svg version="1.1" id="Layer_1" xmlns="http://www.w3.org/2000/svg" xmlns:xlink="http://www.w3.org/1999/xlink" x="0px" y="0px"
	 viewBox="0 0 480 320" style="enable-background:new 0 0 480 320;" xml:space="preserve">
<style type="text/css">
	.st0{fill-rule:evenodd;clip-rule:evenodd;fill:#F4F7FE;}
</style>
<g>
	<path class="st0" d="M465.7,112.9c33.1,0-5.7-64.4-5.7-97.5s-21-2.6-54.1-2.6S340-17.7,340,15.4S432.6,112.9,465.7,112.9z
		 M454.3,319.2c88.4,0-106.5-64.4-106.5-152.8S0,41.9,0,166.4S365.9,319.2,454.3,319.2L454.3,319.2z"/>
</g>
<g>
	<path id="Path_339" d="M273.2,167.9c-3.2,0-6.3,0.6-9.3,1.7c-3.7-1.4-7.7-2.3-11.7-2.6c-3.5-1.1-6-4.1-6.4-7.8
		c0.8-0.9,1.6-1.7,2.5-2.5c5.8-5,5.7-9.7,5.4-14c3.5-1.6,6.2-4.7,7.3-8.4c0.4-2.6,1.1-8.9-2.5-10c-1-0.3-2.1-0.4-3.1-0.1
		c0-1.8,0-3.9-0.2-6.3c-0.7-13.4-14.7-17.5-22.1-17.8h-3.2c-7.3,0.3-21.4,4.4-22.1,17.8c-0.1,2.4-0.2,4.5-0.2,6.3
		c-1-0.3-2.1-0.3-3.1,0.1c-3.6,1.2-3,7.4-2.5,10.1c1.1,3.7,3.7,6.7,7.3,8.3c-0.2,4.2-0.4,9,5.4,14c0.9,0.8,1.7,1.6,2.5,2.5
		c-0.4,3.6-2.9,6.6-6.4,7.8c-7.5,0.5-17.4,3.6-23.2,9.7c-4.4,4.7-6.7,11.6-6.7,20.6c0,22,48.5,22.2,50.5,22.2
		c9.7-0.1,19.3-1.3,28.7-3.5c12.3,7.2,28.1,2.9,35.3-9.4c7.2-12.3,2.9-28.1-9.4-35.3C282.2,169.1,277.7,167.9,273.2,167.9
		L273.2,167.9z M231.5,194.8c-1.6-1.3-3-2.6-4.3-3.8l3.6-7.2c0.5,0.1,1,0.1,1.4,0l3.6,7.2C234.6,192.2,233.1,193.5,231.5,194.8z
		 M233.5,177.9c0,1.1-0.9,2-2,2c-1.1,0-2-0.9-2-2v-4h4V177.9z M238.8,188.1l-3-6.1c1.1-1.1,1.7-2.6,1.7-4.1v-3.3
		c3.9-0.6,7.9-1.5,11.7-2.6C247,178.1,243.5,183.6,238.8,188.1L238.8,188.1z M257.1,128.2c0.4,1.8,0.4,3.7,0.1,5.6
		c-0.6,1.8-1.7,3.4-3.3,4.5c0.1-0.8,0.3-1.6,0.4-2.5c0.5-2.3,0.8-4.6,1-6.9C255.7,128.4,256.4,128.2,257.1,128.2L257.1,128.2z
		 M206,133.9c-0.4-1.9-0.4-3.8,0.1-5.7c0.7,0,1.3,0.2,1.8,0.6c0.2,2.3,0.5,4.6,1,6.9c0.2,0.9,0.3,1.7,0.4,2.5
		C207.7,137.2,206.6,135.6,206,133.9L206,133.9z M213.3,143c0-0.4,0-0.8,0-1.2c0-0.1,0-0.2,0-0.3c0-0.4,0-0.9,0-1.3
		c0-1.8-0.2-3.5-0.6-5.3c-0.5-2.4-0.8-4.8-1-7.3v0c-0.1-3.1-0.1-6.2,0.1-9.3c0.7-13.1,17.5-14,18.2-14h3c0.7,0,17.6,0.9,18.2,14
		c0.2,3.1,0.2,6.2,0.1,9.3c-0.1,2.4-0.4,4.9-1,7.3c-0.4,1.7-0.6,3.5-0.6,5.3c0,0.4,0,0.9,0,1.3c0,0.1,0,0.2,0,0.3c0,0.4,0,0.8,0,1.2
		c0.2,4.1,0.4,7.1-4,10.9c-1.3,1.1-2.5,2.4-3.6,3.8l0,0.1c-0.7,0.8-1.2,1.6-1.7,2.3c-2.1,2.8-3,4-5.7,4h-6.2c-2.7,0-3.7-1.2-5.7-4
		c-0.5-0.7-1.1-1.5-1.7-2.3c0,0,0,0-0.1-0.1c-1.1-1.4-2.3-2.6-3.6-3.7C212.9,150.1,213.1,147.1,213.3,143L213.3,143z M220.2,163.3
		c1.7,2.9,4.8,4.7,8.2,4.7h6.2c3.4,0,6.5-1.8,8.2-4.7c0.8,2.1,2,3.9,3.7,5.3h0c-0.7,0.2-1.6,0.4-2.4,0.6l-0.2,0
		c-0.8,0.2-1.7,0.4-2.6,0.6l-0.2,0.1c-0.9,0.2-1.8,0.4-2.8,0.5l-0.2,0c-0.6,0.1-1.1,0.2-1.7,0.2c-0.5-0.5-1.3-0.8-2-0.8h-6
		c-0.7,0-1.4,0.3-2,0.8c-3.4-0.5-6.8-1.2-10.1-2.2C218.2,167.1,219.4,165.3,220.2,163.3L220.2,163.3z M225.6,174.6v3.3
		c0,1.5,0.6,3,1.7,4.1l-3,6c-4.6-4.5-8.2-10-10.3-16.1C217.7,173.1,221.6,174,225.6,174.6L225.6,174.6z M231.5,215.6
		c-13,0-46.6-3.3-46.6-18.2c0-7.9,1.9-13.9,5.6-17.9c4.6-4.9,12.7-7.6,19-8.3c0.7,3.6,3.5,11.5,13.6,21.5c0,0,0,0,0,0
		c2.2,2.2,4.6,4.2,7,6.2c0.1,0,0.2,0.1,0.2,0.1c0.1,0.1,0.2,0.1,0.3,0.1c0.2,0.1,0.3,0.1,0.5,0.1c0.1,0,0.1,0,0.2,0c0,0,0.1,0,0.1,0
		c0.1,0,0.2,0,0.3,0c0.1,0,0.3-0.1,0.4-0.1c0.1,0,0.2-0.1,0.3-0.2c0.1,0,0.1-0.1,0.2-0.1c2.6-2.1,5-4.2,6.9-6.1
		c10.3-10,13-18,13.8-21.6c1.8,0.2,3.6,0.6,5.4,1c-11.9,7.8-15.2,23.8-7.3,35.7c1.2,1.9,2.7,3.6,4.4,5.1
		C247.9,214.6,239.8,215.5,231.5,215.6L231.5,215.6z M273.1,215.6c-4.1,0-8-1.1-11.5-3.3c-0.1-0.1-0.2-0.1-0.2-0.2
		c-10.2-6.4-13.2-19.9-6.8-30.1c2.4-3.7,5.8-6.7,9.9-8.4c0.1,0,0.2-0.1,0.3-0.1c11.2-4.6,23.9,0.7,28.5,11.9s-0.7,23.9-11.9,28.5
		C278.9,215.1,276,215.6,273.1,215.6L273.1,215.6z"/>
	<path id="Path_340" d="M280,182.4l-12.8,12.8l-0.9-0.9c-2.3-2.3-6.1-2.3-8.4,0c-2.3,2.3-2.3,6.1,0,8.4l0,0l5.1,5.1
		c2.3,2.3,6.1,2.3,8.4,0c0,0,0,0,0,0l17.1-17.1c2.3-2.3,2.3-6.1,0-8.4C286.1,180.1,282.4,180.1,280,182.4L280,182.4z M285.7,188.1
		l-17.1,17.1c-0.8,0.8-2,0.8-2.8,0c0,0,0,0,0,0l-5.1-5.1c-0.8-0.8-0.8-2,0-2.8c0.8-0.8,2-0.8,2.8,0l0,0l1.6,1.6
		c1.2,1.2,3.1,1.2,4.2,0c0,0,0,0,0,0l13.6-13.5c0.7-0.8,2-0.9,2.8-0.1c0.8,0.7,0.9,2,0.1,2.8C285.7,188,285.7,188,285.7,188.1
		L285.7,188.1z"/>
</g>
</svg>
