<?xml version="1.0" encoding="utf-8"?>
<!-- Generator: Adobe Illustrator 23.0.1, SVG Export Plug-In . SVG Version: 6.00 Build 0)  -->
<svg version="1.1" id="Layer_1" xmlns="http://www.w3.org/2000/svg" xmlns:xlink="http://www.w3.org/1999/xlink" x="0px" y="0px"
	 viewBox="0 0 480 320" style="enable-background:new 0 0 480 320;" xml:space="preserve">
<style type="text/css">
	.st0{fill:#F4F7FE;}
	.st1{fill-rule:evenodd;clip-rule:evenodd;fill:#F4F7FE;}
</style>
<path id="base2" class="st0" d="M27.4,234.4C1.8,214.3,49,203.6,49,151.4S27.4,24.2,80.2,10s207.2,65.8,328.5,84.3
	S53,254.6,27.4,234.4z"/>
<path class="st1" d="M429.8,202.8c14.8-14.2,33.3-32.2,30-36.9c-4.1-5.9-34.6,21.6-81.5,22.8c-36.9,1-54.1-15.2-69.6-3.3
	c-14.6,11.2-3.8,29.1-18.4,48.9c-21.8,29.5-67.5,18.7-70.6,32.6c-3,13.4,34.8,46.3,75.8,44.6C315.6,310.8,326.5,302.2,429.8,202.8z"
	/>
<g>
	<g>
		<g>
			<path d="M290.5,201.9l-8.7-14.5c-4-6.7-6.2-14.4-6.2-22.2v-12.7c0-19.6-16-35.6-35.6-35.6s-35.6,16-35.6,35.6v12.7
				c0,7.8-2.1,15.5-6.2,22.2l-8.7,14.5c-0.5,0.8-0.5,1.8,0,2.6c0.5,0.8,1.3,1.3,2.2,1.3h96.6c0.9,0,1.8-0.5,2.2-1.3
				C291,203.7,290.9,202.7,290.5,201.9z M196.2,200.7l6.4-10.7c4.5-7.5,6.9-16.1,6.9-24.8v-12.7c0-16.8,13.7-30.5,30.5-30.5
				s30.5,13.7,30.5,30.5v12.7c0,8.8,2.4,17.3,6.9,24.8l6.4,10.7H196.2L196.2,200.7z"/>
		</g>
	</g>
	<g>
		<g>
			<path d="M240,99c-5.6,0-10.2,4.6-10.2,10.2v10.2c0,1.4,1.1,2.5,2.5,2.5s2.5-1.1,2.5-2.5v-10.2c0-2.8,2.3-5.1,5.1-5.1
				s5.1,2.3,5.1,5.1v10.2c0,1.4,1.1,2.5,2.5,2.5s2.5-1.1,2.5-2.5v-10.2C250.2,103.6,245.6,99,240,99z"/>
		</g>
	</g>
	<g>
		<g>
			<path d="M251,201.9c-0.7-1.2-2.3-1.6-3.5-0.9c-1.2,0.7-1.6,2.3-0.9,3.5c0.7,1.1,1,2.5,1,3.8c0,4.2-3.4,7.6-7.6,7.6
				s-7.6-3.4-7.6-7.6c0-1.3,0.4-2.7,1-3.8c0.7-1.2,0.3-2.8-0.9-3.5c-1.2-0.7-2.8-0.3-3.5,0.9c-1.1,1.9-1.7,4.1-1.7,6.4
				c0,7,5.7,12.7,12.7,12.7s12.7-5.7,12.7-12.7C252.7,206,252.1,203.8,251,201.9z"/>
		</g>
	</g>
</g>
</svg>
