<?xml version="1.0" encoding="utf-8"?>
<!-- Generator: Adobe Illustrator 23.0.1, SVG Export Plug-In . SVG Version: 6.00 Build 0)  -->
<svg version="1.1" id="Layer_1" xmlns="http://www.w3.org/2000/svg" xmlns:xlink="http://www.w3.org/1999/xlink" x="0px" y="0px"
	 viewBox="0 0 480 320" style="enable-background:new 0 0 480 320;" xml:space="preserve">
<style type="text/css">
	.st0{fill-rule:evenodd;clip-rule:evenodd;fill:#F4F7FE;}
</style>
<path id="base3" class="st0" d="M428.7,287.2c41.9-39.5-29.5-79.4-46-139.2C366.1,88.3,341.1-1.3,283.7,23.7s-18.6,93.6-161.2,171.9
	S386.8,326.8,428.7,287.2z"/>
<path id="base3_1_" class="st0" d="M39.1,92.9c14.1,27.3,35.3,68.1,60.6,50.1s-0.5-47.2,60.6-99.7S25,65.7,39.1,92.9z"/>
<g id="_009-contract" transform="translate(0)">
	<path id="Path_787" d="M292,132.6c-0.7-2.8-3.6-4.4-6.4-3.7c-1.3,0.4-2.5,1.2-3.2,2.4l-0.9,1.5c-0.8-0.5-1.9-0.2-2.4,0.6l-4.4,7.5
		l-1.5-0.9c-0.8-0.5-1.9-0.2-2.4,0.6c-0.5,0.8-0.2,1.9,0.6,2.4l1.5,0.9l-14.8,25.6l-3.7,9.8l-1.7,3.3c-1,1.8-0.9,4,0.3,5.6l-3.9,4.8
		l-1.1-2.7c-0.7-1.8-2.7-2.6-4.5-1.9c-0.7,0.3-1.3,0.8-1.7,1.4l-0.6,1.1l-0.6-7c-0.2-1.9-1.8-3.3-3.7-3.2c-1.4,0.1-2.6,1-3,2.4
		l-4.3,12.8c-0.3,0.9,0.2,1.9,1.1,2.2c0.2,0.1,0.4,0.1,0.5,0.1c0.7,0,1.4-0.5,1.7-1.2l4.3-12.8l0.6,7c0.2,1.9,1.8,3.3,3.7,3.2
		c1.1-0.1,2.1-0.7,2.7-1.7l0.6-1.1l1.1,2.7c0.7,1.8,2.7,2.7,4.5,1.9c0.6-0.2,1.1-0.6,1.4-1.1l4-5.1c0.4,0.1,0.9,0.2,1.4,0.2
		c1.9,0,3.6-1,4.5-2.6l1.7-2.9l6.6-8l14.9-25.9l1.5,0.9c0.8,0.5,1.1,1.5,0.6,2.4c0,0,0,0,0,0l-7,12c-0.5,0.8-0.3,1.9,0.5,2.4
		s1.9,0.3,2.4-0.5c0,0,0.1-0.1,0.1-0.1l7-12c1.4-2.5,0.6-5.7-1.9-7.1c0,0,0,0,0,0l-1.5-0.9l4.3-7.5c0.5-0.8,0.2-1.9-0.6-2.4l0.9-1.5
		C292.1,135.4,292.3,133.9,292,132.6z M285.4,133.1c0.2-0.4,0.6-0.7,1.1-0.8c0.4-0.1,0.9,0,1.3,0.2c0.4,0.2,0.7,0.6,0.8,1.1
		c0.1,0.4,0,0.9-0.2,1.3l-0.9,1.5l-3-1.7L285.4,133.1z M261.7,181.6l-0.9-0.5l-2.6-1.5l2.5-6.6l5.5,3.2L261.7,181.6z M256.5,186.6
		c-0.7-0.5-1-1.5-0.5-2.3l0.9-1.5l3,1.7l-0.9,1.5c-0.5,0.8-1.5,1.1-2.4,0.6C256.6,186.7,256.5,186.6,256.5,186.6L256.5,186.6z
		 M268.2,173.3l-6-3.5l13.9-24.1l6,3.5L268.2,173.3z M283.8,146.2l-6-3.5l3.5-6l6,3.5L283.8,146.2z"/>
	<path id="Path_788" d="M215.3,185.7l-6.1,6.1l-3.7-3.7c-0.7-0.7-1.8-0.7-2.5,0c-0.7,0.7-0.7,1.8,0,2.5l3.7,3.7
		c1.4,1.3,3.6,1.3,4.9,0l6.1-6.1c0.6-0.7,0.5-1.8-0.2-2.5C216.9,185.2,215.9,185.2,215.3,185.7L215.3,185.7z"/>
	<path id="Path_789" d="M194.8,190.4c0,8.2,6.6,14.8,14.8,14.8s14.8-6.6,14.8-14.8c0-1-0.8-1.7-1.8-1.7c-0.9,0-1.7,0.8-1.7,1.7
		c0,6.2-5.1,11.3-11.3,11.3s-11.3-5.1-11.3-11.3c0-6.2,5.1-11.3,11.3-11.3c2.4,0,4.8,0.8,6.8,2.3c0.8,0.6,1.9,0.4,2.4-0.4
		c0.5-0.8,0.4-1.8-0.3-2.4c-6.5-4.9-15.8-3.6-20.7,3C195.8,184.1,194.8,187.2,194.8,190.4z"/>
	<path id="Path_790" d="M250.4,121.8c1,0,1.7-0.8,1.7-1.8c0-0.9-0.8-1.7-1.7-1.7h-45.2c-1,0-1.7,0.8-1.7,1.7c0,0,0,0,0,0v7
		c0,1,0.8,1.7,1.7,1.7c0,0,0,0,0,0h45.2c1,0,1.7-0.8,1.7-1.8c0-0.9-0.8-1.7-1.7-1.7H207v-3.5H250.4z"/>
	<path id="Path_791" d="M210.4,132.2c-1,0-1.8,0.7-1.8,1.7c0,1,0.7,1.8,1.7,1.8c0,0,0.1,0,0.1,0h34.8c1,0,1.8-0.7,1.8-1.7
		c0-1-0.7-1.8-1.7-1.8c0,0-0.1,0-0.1,0H210.4z"/>
	<path id="Path_792" d="M255.6,144.4h-38.2c-1,0-1.7,0.8-1.7,1.8c0,0.9,0.8,1.7,1.7,1.7h38.2c1,0,1.7-0.8,1.7-1.8
		C257.3,145.1,256.5,144.4,255.6,144.4L255.6,144.4z"/>
	<path id="Path_793" d="M238.3,156.5c0-1-0.8-1.7-1.7-1.7l0,0h-34.8c-1,0-1.8,0.7-1.8,1.7c0,1,0.7,1.8,1.7,1.8c0,0,0.1,0,0.1,0h34.8
		C237.5,158.3,238.3,157.5,238.3,156.5C238.3,156.5,238.3,156.5,238.3,156.5z"/>
	<path id="Path_794" d="M255.6,154.8h-12.2c-1,0-1.7,0.8-1.7,1.8c0,0.9,0.8,1.7,1.7,1.7h12.2c1,0,1.8-0.7,1.8-1.7
		c0-1-0.7-1.8-1.7-1.8C255.7,154.8,255.7,154.8,255.6,154.8z"/>
	<path id="Path_795" d="M219.1,167c1,0,1.7-0.8,1.7-1.8c0-0.9-0.8-1.7-1.7-1.7h-17.4c-1,0-1.7,0.8-1.7,1.8c0,0.9,0.8,1.7,1.7,1.7
		H219.1z"/>
	<path id="Path_796" d="M226.1,167h12.2c1,0,1.7-0.8,1.7-1.8c0-0.9-0.8-1.7-1.7-1.7h-12.2c-1,0-1.7,0.8-1.7,1.8
		C224.4,166.2,225.2,166.9,226.1,167z"/>
	<path id="Path_797" d="M266.1,187.8c-1,0-1.7,0.8-1.7,1.7v0v17.4c0,1-0.8,1.7-1.7,1.7c0,0,0,0,0,0h-69.5c-1,0-1.7-0.8-1.7-1.7
		c0,0,0,0,0,0v-93.8c0-1,0.8-1.7,1.7-1.7l0,0h69.5c1,0,1.7,0.8,1.7,1.7c0,0,0,0,0,0v32.6c0,1,0.7,1.8,1.7,1.8c1,0,1.8-0.7,1.8-1.7
		c0,0,0-0.1,0-0.1v-32.6c0-2.9-2.3-5.2-5.2-5.2c0,0,0,0,0,0h-69.5c-2.9,0-5.2,2.3-5.2,5.2c0,0,0,0,0,0v93.8c0,2.9,2.3,5.2,5.2,5.2
		h69.5c2.9,0,5.2-2.3,5.2-5.2v-17.4C267.8,188.6,267,187.8,266.1,187.8z"/>
</g>
</svg>
