<?xml version="1.0" encoding="utf-8"?>
<!-- Generator: Adobe Illustrator 23.0.1, SVG Export Plug-In . SVG Version: 6.00 Build 0)  -->
<svg version="1.1" id="Layer_1" xmlns="http://www.w3.org/2000/svg" xmlns:xlink="http://www.w3.org/1999/xlink" x="0px" y="0px"
	 viewBox="0 0 480 320" style="enable-background:new 0 0 480 320;" xml:space="preserve">
<style type="text/css">
	.st0{fill:#F4F7FE;}
</style>
<g>
	<path class="st0" d="M282,251.9c88.4,0,65.9-12.8,65.9-101.1S378.4,0,290,0S0,62.4,0,150.8C0,239.1,193.6,251.9,282,251.9
		L282,251.9z"/>
	<path class="st0" d="M382.9,319.9c33.1,0,96.6-57,96.6-90.1s-82.6-7.1-115.7-7.1s-27.3-5.2-27.3,27.9
		C336.4,283.8,349.7,319.9,382.9,319.9z"/>
</g>
<path id="_001-users" d="M282.3,187.4l-16.2-7c-0.5-0.3-0.9-0.8-1.2-1.3h10.8c2.8,0.2,5.6-0.2,8.2-1.1c2.5-1.1,3.6-4,2.5-6.5
	c-0.1-0.3-0.3-0.6-0.5-0.9c-3.1-4.4-10.3-15.9-10.5-27.6c0-0.2-0.7-20-20.3-20.2c-2.7,0-5.4,0.5-8,1.4c-0.6-1.5-1.4-2.9-2.5-4.1
	c-3.4-3.9-8.9-5.9-16.4-5.9c-7.5,0-13,2-16.4,5.9c-2.5,3-3.8,6.9-3.5,10.8v8.8c-1,1.2-1.6,2.7-1.6,4.3v6.6c0,2,0.9,3.9,2.5,5.2
	c1.2,4.3,3.1,8.4,5.8,12v5.5c0,1.6-0.9,3.1-2.3,3.8l-14.8,8.1c-4.8,2.6-7.8,7.7-7.8,13.1v6.9h99.5v-6.1
	C289.7,194.4,286.8,189.7,282.3,187.4z M263.2,202.3h-69.7v-3.7c0-4.3,2.3-8.2,6-10.2l14.8-8.1c2.5-1.4,4-4,4-6.8v-6.6l-0.4-0.4
	c-2.7-3.5-4.6-7.5-5.7-11.7l-0.2-0.7l-0.5-0.4c-0.9-0.6-1.5-1.6-1.5-2.8v-6.6c0-0.9,0.4-1.8,1.1-2.5l0.5-0.5V131v-0.2
	c-0.2-3,0.7-6,2.6-8.3c2.7-3.1,7.4-4.7,13.9-4.7s11.1,1.6,13.9,4.7c1.2,1.4,2,3,2.4,4.8c0,0.1,0.1,0.2,0.1,0.3
	c0,0.1,0.1,0.2,0.1,0.3s0.1,0.3,0.1,0.4c0,0.1,0,0.2,0.1,0.3c0,0.2,0.1,0.4,0.1,0.6v0.1c0,0.2,0,0.3,0,0.5c0,0.1,0,0.1,0,0.1
	c0,0.2,0,0.3,0,0.4v0.1c0,0.4-0.1,0.6-0.1,0.6v10.5l0.5,0.5c0.7,0.6,1.1,1.5,1.1,2.5v6.6c0,1.4-1,2.7-2.4,3.1l-0.8,0.3l-0.3,0.8
	c-1.1,3.4-2.6,6.6-4.7,9.5c-0.4,0.6-0.9,1.2-1.4,1.8l-0.4,0.5v6.9c0,0.4,0.1,0.8,0.1,1.2c0,0.1,0.1,0.2,0.1,0.3
	c0.1,0.3,0.2,0.7,0.3,1c0,0.1,0.1,0.2,0.1,0.2c0.1,0.3,0.3,0.7,0.4,1c0,0.1,0.1,0.1,0.1,0.1c0.2,0.4,0.5,0.8,0.8,1.2l0.4,0.4h0.1
	c0.5,0.5,1.3,1,2,1.4l15.9,7.9c4,2,6.5,6,6.4,10.4L263.2,202.3z M286.4,202.3h-19.9v-3.4c0-5.7-3.2-10.9-8.3-13.4l-11.4-5.7
	c0.6-1.5-0.1-3.1-1.5-3.8c-0.4-0.2-0.8-0.2-1.2-0.2h-3.7c-0.1-0.2-0.1-0.3-0.2-0.4c-0.3-0.5-0.4-1.2-0.4-1.7v-5.6
	c0.4-0.4,0.8-1,1.2-1.6c2.1-3,3.7-6.2,4.9-9.6c2.4-1,3.8-3.4,3.8-6v-6.6c0-1.6-0.6-3.1-1.6-4.3v-8.8c0.1-1.2,0.1-2.4-0.2-3.6
	c2.3-0.9,4.7-1.3,7.1-1.3c16.3,0.1,16.9,16.2,16.9,17c0.2,12.6,7.9,24.8,11.1,29.4c0.3,0.4,0.4,0.9,0.2,1.4c-0.1,0.4-0.4,0.8-0.9,1
	c-2.1,0.8-4.4,1-6.8,0.8h-11.4c-1.7,0-3.1,1.4-3.1,3.1c0,0.5,0.1,0.9,0.3,1.4c0.6,1.4,1.6,2.5,3,3.2l16.1,7c3.4,1.7,5.6,5.2,5.5,9.1
	L286.4,202.3z"/>
</svg>
